# xmcd CD database file
#
# Track frame offsets:
#	150
#	12597
#	23862
#	35352
#	46435
#	59377
#	73087
#	82007
#	93917
#	106305
#
# Disc length: 1581 seconds
#
# Revision: 5
# Processed by: cddbd v1.5.2PL0 Copyright (c) Steve Scherf et al.
# Submitted via: CDex 1.51
#
DISCID=81062b0a
DTITLE=Various Artist - Christmas Blues and Shout
DYEAR=1996
DGENRE=Jazz
TTITLE0=Lionel Hampton - Boogie Woogie Santa Claus
TTITLE1=Otis Redding - Merry Christmas, Baby
TTITLE2=J.B. Summer - I Want A Present For Christmas
TTITLE3=Duke Ellington and His Famous Orchestrra - Ring 'Dem Bells
TTITLE4=Count Basic - Good Morning Blues
TTITLE5=Fats Waller - Swingin' Them Jingle Bells
TTITLE6=Lorna Horne - Silent Night
TTITLE7=Louis Armstrong With Benny Carter - Christmas Night In Harlem
TTITLE8=Dinah Washington - The Lord's Prayer
TTITLE9=Johnny Otis - Happy New Year, Baby
EXTD=YEAR: 1996
EXTT0=
EXTT1=
EXTT2=
EXTT3=
EXTT4=
EXTT5=
EXTT6=
EXTT7=
EXTT8=
EXTT9=
PLAYORDER=
